<svg width="105" height="72" viewBox="0 0 105 72" fill="none" xmlns="http://www.w3.org/2000/svg">
<g filter="url(#filter0_dddd_658_517)">
<path d="M24.04 70.3122C16.04 70.3122 10.184 67.2722 6.47199 61.1922C2.82399 55.1122 0.99999 46.6002 0.99999 35.6562C0.99999 24.7122 2.82399 16.2002 6.47199 10.1202C10.184 4.04015 16.04 1.00015 24.04 1.00015C32.04 1.00015 37.864 4.04015 41.512 10.1202C45.224 16.2002 47.08 24.7122 47.08 35.6562C47.08 46.6002 45.224 55.1122 41.512 61.1922C37.864 67.2722 32.04 70.3122 24.04 70.3122ZM24.04 63.3042C26.664 63.3042 28.904 62.7602 30.76 61.6722C32.616 60.5842 34.12 59.0482 35.272 57.0642C36.424 55.0802 37.256 52.7442 37.768 50.0562C38.344 47.3682 38.632 44.3922 38.632 41.1282V30.1842C38.632 26.9202 38.344 23.9442 37.768 21.2562C37.256 18.5682 36.424 16.2322 35.272 14.2482C34.12 12.2642 32.616 10.7282 30.76 9.64016C28.904 8.55215 26.664 8.00815 24.04 8.00815C21.416 8.00815 19.176 8.55215 17.32 9.64016C15.464 10.7282 13.96 12.2642 12.808 14.2482C11.656 16.2322 10.792 18.5682 10.216 21.2562C9.70399 23.9442 9.44799 26.9202 9.44799 30.1842V41.1282C9.44799 44.3922 9.70399 47.3682 10.216 50.0562C10.792 52.7442 11.656 55.0802 12.808 57.0642C13.96 59.0482 15.464 60.5842 17.32 61.6722C19.176 62.7602 21.416 63.3042 24.04 63.3042ZM103.97 69.1602H60.0025V60.9042L81.8905 40.7442C85.0265 37.8642 87.6505 34.8242 89.7625 31.6242C91.8745 28.3602 92.9305 25.0962 92.9305 21.8322V20.6802C92.9305 16.9682 91.9065 13.9602 89.8585 11.6562C87.8105 9.35215 84.7065 8.20015 80.5465 8.20015C78.4985 8.20015 76.7065 8.48815 75.1705 9.06415C73.6345 9.64015 72.2905 10.4402 71.1385 11.4642C70.0505 12.4882 69.1225 13.7042 68.3545 15.1122C67.6505 16.4562 67.0745 17.9282 66.6265 19.5282L59.4265 16.7442C60.0665 14.7602 60.9305 12.8402 62.0185 10.9842C63.1705 9.06415 64.5785 7.36815 66.2425 5.89615C67.9705 4.42415 70.0185 3.24015 72.3865 2.34415C74.8185 1.44815 77.6665 1.00015 80.9305 1.00015C84.1945 1.00015 87.1065 1.48015 89.6665 2.44015C92.2265 3.40015 94.3705 4.74415 96.0985 6.47215C97.8265 8.20015 99.1385 10.2482 100.034 12.6162C100.994 14.9842 101.474 17.6082 101.474 20.4882C101.474 23.1122 101.09 25.5442 100.322 27.7842C99.6185 30.0242 98.6265 32.1682 97.3465 34.2162C96.0665 36.2002 94.4985 38.1522 92.6425 40.0722C90.8505 41.9922 88.8985 43.9122 86.7865 45.8322L68.7385 62.0562H103.97V69.1602Z" fill="white"/>
</g>
<defs>
<filter id="filter0_dddd_658_517" x="0" y="0" width="104.971" height="71.3125" filterUnits="userSpaceOnUse" color-interpolation-filters="sRGB">
<feFlood flood-opacity="0" result="BackgroundImageFix"/>
<feColorMatrix in="SourceAlpha" type="matrix" values="0 0 0 0 0 0 0 0 0 0 0 0 0 0 0 0 0 0 127 0" result="hardAlpha"/>
<feOffset dy="-1"/>
<feComposite in2="hardAlpha" operator="out"/>
<feColorMatrix type="matrix" values="0 0 0 0 0.027451 0 0 0 0 0.027451 0 0 0 0 0.027451 0 0 0 1 0"/>
<feBlend mode="normal" in2="BackgroundImageFix" result="effect1_dropShadow_658_517"/>
<feColorMatrix in="SourceAlpha" type="matrix" values="0 0 0 0 0 0 0 0 0 0 0 0 0 0 0 0 0 0 127 0" result="hardAlpha"/>
<feOffset dx="1"/>
<feComposite in2="hardAlpha" operator="out"/>
<feColorMatrix type="matrix" values="0 0 0 0 0.027451 0 0 0 0 0.027451 0 0 0 0 0.027451 0 0 0 1 0"/>
<feBlend mode="normal" in2="effect1_dropShadow_658_517" result="effect2_dropShadow_658_517"/>
<feColorMatrix in="SourceAlpha" type="matrix" values="0 0 0 0 0 0 0 0 0 0 0 0 0 0 0 0 0 0 127 0" result="hardAlpha"/>
<feOffset dy="1"/>
<feComposite in2="hardAlpha" operator="out"/>
<feColorMatrix type="matrix" values="0 0 0 0 0.027451 0 0 0 0 0.027451 0 0 0 0 0.027451 0 0 0 1 0"/>
<feBlend mode="normal" in2="effect2_dropShadow_658_517" result="effect3_dropShadow_658_517"/>
<feColorMatrix in="SourceAlpha" type="matrix" values="0 0 0 0 0 0 0 0 0 0 0 0 0 0 0 0 0 0 127 0" result="hardAlpha"/>
<feOffset dx="-1"/>
<feComposite in2="hardAlpha" operator="out"/>
<feColorMatrix type="matrix" values="0 0 0 0 0.027451 0 0 0 0 0.027451 0 0 0 0 0.027451 0 0 0 1 0"/>
<feBlend mode="normal" in2="effect3_dropShadow_658_517" result="effect4_dropShadow_658_517"/>
<feBlend mode="normal" in="SourceGraphic" in2="effect4_dropShadow_658_517" result="shape"/>
</filter>
</defs>
</svg>
