<svg width="103" height="72" viewBox="0 0 103 72" fill="none" xmlns="http://www.w3.org/2000/svg">
<g filter="url(#filter0_dddd_658_522)">
<path d="M24.04 70.3122C16.04 70.3122 10.184 67.2722 6.47199 61.1922C2.82399 55.1122 0.99999 46.6002 0.99999 35.6562C0.99999 24.7122 2.82399 16.2002 6.47199 10.1202C10.184 4.04015 16.04 1.00015 24.04 1.00015C32.04 1.00015 37.864 4.04015 41.512 10.1202C45.224 16.2002 47.08 24.7122 47.08 35.6562C47.08 46.6002 45.224 55.1122 41.512 61.1922C37.864 67.2722 32.04 70.3122 24.04 70.3122ZM24.04 63.3042C26.664 63.3042 28.904 62.7602 30.76 61.6722C32.616 60.5842 34.12 59.0482 35.272 57.0642C36.424 55.0802 37.256 52.7442 37.768 50.0562C38.344 47.3682 38.632 44.3922 38.632 41.1282V30.1842C38.632 26.9202 38.344 23.9442 37.768 21.2562C37.256 18.5682 36.424 16.2322 35.272 14.2482C34.12 12.2642 32.616 10.7282 30.76 9.64016C28.904 8.55215 26.664 8.00815 24.04 8.00815C21.416 8.00815 19.176 8.55215 17.32 9.64016C15.464 10.7282 13.96 12.2642 12.808 14.2482C11.656 16.2322 10.792 18.5682 10.216 21.2562C9.70399 23.9442 9.44799 26.9202 9.44799 30.1842V41.1282C9.44799 44.3922 9.70399 47.3682 10.216 50.0562C10.792 52.7442 11.656 55.0802 12.808 57.0642C13.96 59.0482 15.464 60.5842 17.32 61.6722C19.176 62.7602 21.416 63.3042 24.04 63.3042ZM77.8585 30.5682C82.4025 30.5682 85.7945 29.5442 88.0345 27.4962C90.3385 25.3842 91.4905 22.6962 91.4905 19.4322V18.7602C91.4905 15.2402 90.3705 12.6162 88.1305 10.8882C85.9545 9.09615 83.0745 8.20015 79.4905 8.20015C76.0345 8.20015 73.2185 8.96815 71.0425 10.5042C68.8665 11.9762 67.0745 13.9922 65.6665 16.5522L59.7145 11.9442C60.5465 10.6002 61.5385 9.28815 62.6905 8.00815C63.9065 6.66415 65.3145 5.48015 66.9145 4.45615C68.5145 3.43215 70.3705 2.60015 72.4825 1.96015C74.5945 1.32015 76.9945 1.00015 79.6825 1.00015C82.4985 1.00015 85.1545 1.38415 87.6505 2.15215C90.1465 2.85615 92.2905 3.94415 94.0825 5.41615C95.9385 6.82415 97.3785 8.58415 98.4025 10.6962C99.4905 12.8082 100.034 15.2082 100.034 17.8962C100.034 20.0722 99.6825 22.0242 98.9785 23.7522C98.3385 25.4802 97.4425 26.9842 96.2905 28.2642C95.1385 29.5442 93.7625 30.6322 92.1625 31.5282C90.6265 32.4242 88.9625 33.0962 87.1705 33.5442V33.9282C88.9625 34.3122 90.6905 34.9522 92.3545 35.8482C94.0825 36.6802 95.5865 37.8002 96.8665 39.2082C98.2105 40.5522 99.2665 42.2162 100.034 44.2002C100.866 46.1202 101.282 48.3282 101.282 50.8242C101.282 53.7042 100.738 56.3602 99.6505 58.7922C98.5625 61.1602 97.0265 63.2082 95.0425 64.9362C93.0585 66.6002 90.6585 67.9122 87.8425 68.8722C85.0265 69.8322 81.9225 70.3122 78.5305 70.3122C75.6505 70.3122 73.0905 69.9922 70.8505 69.3522C68.6105 68.7122 66.6265 67.8482 64.8985 66.7602C63.1705 65.6722 61.6345 64.4562 60.2905 63.1122C59.0105 61.7682 57.8585 60.3602 56.8345 58.8882L62.8825 54.2802C63.7145 55.6242 64.6105 56.8402 65.5705 57.9282C66.5945 59.0162 67.7145 59.9442 68.9305 60.7122C70.1465 61.4802 71.5225 62.0882 73.0585 62.5362C74.5945 62.9202 76.3865 63.1122 78.4345 63.1122C83.1705 63.1122 86.7545 62.0562 89.1865 59.9442C91.6185 57.7682 92.8345 54.6962 92.8345 50.7282V49.9602C92.8345 45.9922 91.6185 42.9522 89.1865 40.8402C86.7545 38.6642 83.1705 37.5762 78.4345 37.5762H70.5625V30.5682H77.8585Z" fill="white"/>
</g>
<defs>
<filter id="filter0_dddd_658_522" x="0" y="0" width="102.283" height="71.3125" filterUnits="userSpaceOnUse" color-interpolation-filters="sRGB">
<feFlood flood-opacity="0" result="BackgroundImageFix"/>
<feColorMatrix in="SourceAlpha" type="matrix" values="0 0 0 0 0 0 0 0 0 0 0 0 0 0 0 0 0 0 127 0" result="hardAlpha"/>
<feOffset dy="-1"/>
<feComposite in2="hardAlpha" operator="out"/>
<feColorMatrix type="matrix" values="0 0 0 0 0.027451 0 0 0 0 0.027451 0 0 0 0 0.027451 0 0 0 1 0"/>
<feBlend mode="normal" in2="BackgroundImageFix" result="effect1_dropShadow_658_522"/>
<feColorMatrix in="SourceAlpha" type="matrix" values="0 0 0 0 0 0 0 0 0 0 0 0 0 0 0 0 0 0 127 0" result="hardAlpha"/>
<feOffset dx="1"/>
<feComposite in2="hardAlpha" operator="out"/>
<feColorMatrix type="matrix" values="0 0 0 0 0.027451 0 0 0 0 0.027451 0 0 0 0 0.027451 0 0 0 1 0"/>
<feBlend mode="normal" in2="effect1_dropShadow_658_522" result="effect2_dropShadow_658_522"/>
<feColorMatrix in="SourceAlpha" type="matrix" values="0 0 0 0 0 0 0 0 0 0 0 0 0 0 0 0 0 0 127 0" result="hardAlpha"/>
<feOffset dy="1"/>
<feComposite in2="hardAlpha" operator="out"/>
<feColorMatrix type="matrix" values="0 0 0 0 0.027451 0 0 0 0 0.027451 0 0 0 0 0.027451 0 0 0 1 0"/>
<feBlend mode="normal" in2="effect2_dropShadow_658_522" result="effect3_dropShadow_658_522"/>
<feColorMatrix in="SourceAlpha" type="matrix" values="0 0 0 0 0 0 0 0 0 0 0 0 0 0 0 0 0 0 127 0" result="hardAlpha"/>
<feOffset dx="-1"/>
<feComposite in2="hardAlpha" operator="out"/>
<feColorMatrix type="matrix" values="0 0 0 0 0.027451 0 0 0 0 0.027451 0 0 0 0 0.027451 0 0 0 1 0"/>
<feBlend mode="normal" in2="effect3_dropShadow_658_522" result="effect4_dropShadow_658_522"/>
<feBlend mode="normal" in="SourceGraphic" in2="effect4_dropShadow_658_522" result="shape"/>
</filter>
</defs>
</svg>
