<svg width="82" height="82" viewBox="0 0 82 82" fill="none" xmlns="http://www.w3.org/2000/svg">
<mask id="mask0_83_137" style="mask-type:alpha" maskUnits="userSpaceOnUse" x="0" y="0" width="82" height="82">
<rect width="82" height="82" fill="#D9D9D9"/>
</mask>
<g mask="url(#mask0_83_137)">
<path d="M21.1834 69.3582C19.9306 69.3582 18.8771 68.9312 18.0229 68.077C17.1688 67.2228 16.7417 66.1694 16.7417 64.9166V25.2832C16.7417 23.9906 17.1688 22.9272 18.0229 22.0929C18.8771 21.2587 19.9306 20.8416 21.1834 20.8416H30.75V11.6166H32.8V20.8416H49.5417V11.6166H51.25V20.8416H60.8167C62.0695 20.8416 63.123 21.2587 63.9771 22.0929C64.8313 22.9272 65.2584 23.9906 65.2584 25.2832V47.0645L63.55 48.7728V39.6332H18.45V64.9166C18.45 65.5999 18.7348 66.2263 19.3042 66.7957C19.8736 67.3652 20.5 67.6499 21.1834 67.6499H39.3771L41.1709 69.3582H21.1834ZM18.45 37.9249H63.55V25.2832C63.55 24.5999 63.2653 23.9735 62.6959 23.4041C62.1264 22.8346 61.5 22.5499 60.8167 22.5499H21.1834C20.5 22.5499 19.8736 22.8346 19.3042 23.4041C18.7348 23.9735 18.45 24.5999 18.45 25.2832V37.9249ZM54.325 71.4082L46.2959 63.4645L47.5771 62.1832L54.4104 69.0166L68.0771 55.3499L69.3584 56.5457L54.325 71.4082Z" fill="#181818"/>
</g>
</svg>
