<svg width="85" height="85" viewBox="0 0 85 85" fill="none" xmlns="http://www.w3.org/2000/svg">
<mask id="mask0_251_1183" style="mask-type:alpha" maskUnits="userSpaceOnUse" x="0" y="0" width="85" height="85">
<rect width="85" height="85" fill="#D9D9D9"/>
</mask>
<g mask="url(#mask0_251_1183)">
<path d="M13.4587 71.896C12.1925 71.896 11.1088 71.4453 10.2074 70.544C9.30546 69.642 8.85449 68.558 8.85449 67.2918V26.2085C8.85449 24.9424 9.30546 23.8586 10.2074 22.9572C11.1088 22.0553 12.1925 21.6043 13.4587 21.6043H38.4274V23.3752H13.4587C12.6323 23.3752 11.9535 23.6408 11.4222 24.172C10.891 24.7033 10.6253 25.3821 10.6253 26.2085V67.2918C10.6253 68.1182 10.891 68.797 11.4222 69.3283C11.9535 69.8595 12.6323 70.1252 13.4587 70.1252H54.542C55.3684 70.1252 56.0472 69.8595 56.5785 69.3283C57.1097 68.797 57.3753 68.1182 57.3753 67.2918V46.5731H59.1462V67.2918C59.1462 68.5757 58.6952 69.6639 57.7932 70.5564C56.8919 71.4495 55.8081 71.896 54.542 71.896H13.4587ZM20.3649 61.4481H22.1357V44.8022H20.3649V61.4481ZM33.1149 61.4481H34.8857V32.0522H33.1149V61.4481ZM45.8649 61.4481H47.6357V51.1772H45.8649V61.4481ZM59.4853 40.1981C57.6655 40.1981 55.9291 39.9236 54.2764 39.3746C52.6236 38.8257 51.1184 37.9196 49.7607 36.6564L46.3076 39.8439C46.0715 40.08 45.8649 40.2128 45.6878 40.2424C45.5107 40.2719 45.3041 40.1686 45.068 39.9325C44.7729 39.6373 44.6253 39.4307 44.6253 39.3127C44.6253 39.1946 44.7729 38.988 45.068 38.6929L48.3441 35.4168C47.2816 34.0002 46.4257 32.4365 45.7764 30.7259C45.1271 29.0159 44.8024 27.2739 44.8024 25.5002C44.8024 21.4337 46.2353 17.9673 49.1011 15.1009C51.9675 12.2351 55.4339 10.8022 59.5003 10.8022H74.1982V25.5002C74.1982 29.5666 72.7636 33.033 69.8942 35.8994C67.0255 38.7652 63.5558 40.1981 59.4853 40.1981ZM59.5003 38.4272C63.091 38.4272 66.1433 37.1705 68.6573 34.6571C71.1707 32.1431 72.4274 29.0908 72.4274 25.5002V12.5731H59.5003C55.9097 12.5731 52.8573 13.8298 50.3433 16.3432C47.8299 18.8572 46.5732 21.9095 46.5732 25.5002C46.5732 26.99 46.8831 28.4545 47.5029 29.8936C48.1227 31.3327 48.8458 32.7016 49.6722 34.0002L59.943 23.8179C60.2382 23.5227 60.4448 23.3752 60.5628 23.3752C60.6809 23.3752 60.881 23.5162 61.1631 23.7984C61.4122 24.0475 61.5368 24.2606 61.5368 24.4377C61.5368 24.6147 61.4288 24.8143 61.2127 25.0362L51.0889 35.2397C52.2104 36.4203 53.5096 37.2467 54.9865 37.7189C56.4639 38.1911 57.9686 38.4272 59.5003 38.4272Z" fill="#181818"/>
</g>
</svg>
