<svg width="82" height="82" viewBox="0 0 82 82" fill="none" xmlns="http://www.w3.org/2000/svg">
<mask id="mask0_179_540" style="mask-type:alpha" maskUnits="userSpaceOnUse" x="0" y="0" width="82" height="82">
<rect width="82" height="82" fill="#D9D9D9"/>
</mask>
<g mask="url(#mask0_179_540)">
<path d="M58.2541 48.0035V46.2951H66.6036C66.8427 46.2951 67.0483 46.3754 67.2203 46.536C67.3928 46.6971 67.4791 46.8965 67.4791 47.1339C67.4791 47.3719 67.3974 47.5764 67.2339 47.7472C67.0699 47.918 66.8669 48.0035 66.6249 48.0035H58.2541ZM58.2541 60.3035V58.5951H66.6036C66.8427 58.5951 67.0483 58.6754 67.2203 58.836C67.3928 58.9971 67.4791 59.1965 67.4791 59.4339C67.4791 59.6719 67.3974 59.8764 67.2339 60.0472C67.0699 60.218 66.8669 60.3035 66.6249 60.3035H58.2541ZM49.3503 63.3785C47.6556 63.3785 46.2078 62.7763 45.0068 61.5719C43.8053 60.3675 43.2045 58.9197 43.2045 57.2285H37.0708V49.3701H43.2208C43.2208 47.6789 43.8229 46.2311 45.0273 45.0267C46.2317 43.8223 47.6795 43.2201 49.3708 43.2201H54.1541V63.3785H49.3503ZM24.5717 54.1535C21.7433 54.1535 19.361 53.1854 17.4249 51.2493C15.4888 49.3132 14.5208 46.9215 14.5208 44.0743C14.5208 41.2271 15.4888 38.8354 17.4249 36.8993C19.361 34.9632 21.7527 33.9951 24.5999 33.9951H30.2374C32.0881 33.9951 33.6897 33.3189 35.0421 31.9665C36.3945 30.614 37.0708 29.0125 37.0708 27.1618C37.0708 25.3111 36.3945 23.7095 35.0421 22.3571C33.6897 21.0047 32.0881 20.3285 30.2374 20.3285H19.4749C19.2329 20.3285 19.0302 20.2462 18.8668 20.0816C18.7028 19.9176 18.6208 19.714 18.6208 19.4709C18.6208 19.2283 18.7028 19.0258 18.8668 18.8636C19.0302 18.7013 19.2329 18.6201 19.4749 18.6201H30.2374C32.686 18.6201 34.7218 19.4316 36.3447 21.0545C37.9676 22.6774 38.7791 24.7132 38.7791 27.1618C38.7791 29.6104 37.9676 31.6462 36.3447 33.2691C34.7218 34.892 32.686 35.7035 30.2374 35.7035H24.5999C22.2977 35.7035 20.3271 36.5266 18.6882 38.1728C17.0488 39.8185 16.2291 41.7974 16.2291 44.1093C16.2291 46.4207 17.0488 48.3904 18.6882 50.0184C20.3271 51.647 22.2977 52.4613 24.5999 52.4613H32.9708V54.1535H24.5717Z" fill="#181818"/>
</g>
</svg>
