<svg width="85" height="85" viewBox="0 0 85 85" fill="none" xmlns="http://www.w3.org/2000/svg">
<mask id="mask0_236_703" style="mask-type:alpha" maskUnits="userSpaceOnUse" x="0" y="0" width="85" height="85">
<rect width="85" height="85" fill="#D9D9D9"/>
</mask>
<g mask="url(#mask0_236_703)">
<path d="M13.1932 71.8966V70.1258H35.7713V71.8966H13.1932ZM59.5323 69.9487C58.3896 69.9487 57.4197 69.5208 56.6229 68.6649C55.826 67.809 55.3685 66.7907 55.2505 65.6102H45.5109C44.9206 65.6102 44.3746 65.4021 43.8729 64.986C43.3711 64.5698 43.1203 64.0991 43.1203 63.5737C43.4154 59.5008 45.0239 56.1953 47.9458 53.6571C50.8676 51.1189 54.4241 49.7022 58.615 49.4071V17.6206H60.3859V49.4071C64.5769 49.7022 68.1628 51.1189 71.1437 53.6571C74.1246 56.1953 75.7331 59.5008 75.9692 63.5737C75.9692 64.0991 75.7183 64.5698 75.2166 64.986C74.7149 65.4021 74.1689 65.6102 73.5786 65.6102H63.839C63.78 66.7907 63.329 67.809 62.4861 68.6649C61.6426 69.5208 60.658 69.9487 59.5323 69.9487ZM24.5265 65.6987V38.2508H12.6619C11.8946 38.2508 11.2748 37.9262 10.8025 37.2769C10.3303 36.6276 10.2123 35.9487 10.4484 35.2404L15.0525 19.3029C15.1116 18.7716 15.3506 18.3732 15.7697 18.1076C16.1888 17.842 16.6581 17.7091 17.1775 17.7091H33.9562C34.4579 17.7091 34.9154 17.842 35.3286 18.1076C35.7418 18.3732 35.9779 18.7716 36.0369 19.3029L40.6411 35.2404C40.8772 35.9487 40.7591 36.6276 40.2869 37.2769C39.8147 37.9262 39.1949 38.2508 38.4275 38.2508H26.2973V65.6987H24.5265ZM44.8025 63.9279H74.1984C73.7852 59.855 72.141 56.7118 69.2657 54.4982C66.3905 52.2847 63.1283 51.1779 59.4792 51.1779C55.9517 51.1779 52.7123 52.2847 49.7609 54.4982C46.8095 56.7118 45.1567 59.855 44.8025 63.9279ZM11.9536 36.48H39.0473L34.1775 19.48H16.8234L11.9536 36.48Z" fill="#181818"/>
</g>
</svg>
