<svg width="85" height="85" viewBox="0 0 85 85" fill="none" xmlns="http://www.w3.org/2000/svg">
<mask id="mask0_236_718" style="mask-type:alpha" maskUnits="userSpaceOnUse" x="0" y="0" width="85" height="85">
<rect width="85" height="85" fill="#D9D9D9"/>
</mask>
<g mask="url(#mask0_236_718)">
<path d="M45.1559 76.1466H39.2236C38.3146 76.1466 37.5266 75.8279 36.8596 75.1904C36.1925 74.5529 35.859 73.8092 35.859 72.9591V59.5894C35.859 58.7394 36.1925 57.9956 36.8596 57.3581C37.5266 56.7206 38.3146 56.4019 39.2236 56.4019H41.2601V39.4904C41.2601 38.723 40.9502 38.0737 40.3304 37.5425C39.7106 37.0112 38.958 36.7456 38.0726 36.7456H18.0622C16.6632 36.7456 15.4871 36.2985 14.5338 35.4042C13.5805 34.5099 13.1038 33.4223 13.1038 32.1414V22.756C13.1038 21.5341 13.5805 20.4761 14.5338 19.5818C15.4871 18.6875 16.6632 18.2404 18.0622 18.2404H20.8955V16.2925C20.8955 15.4425 21.229 14.6987 21.896 14.0612C22.563 13.4237 23.351 13.105 24.2601 13.105H60.0309C60.9399 13.105 61.728 13.4237 62.395 14.0612C63.062 14.6987 63.3955 15.4425 63.3955 16.2925V21.9591C63.3955 22.8091 63.062 23.5529 62.395 24.1904C61.728 24.8279 60.9399 25.1466 60.0309 25.1466H24.2601C23.351 25.1466 22.563 24.8279 21.896 24.1904C21.229 23.5529 20.8955 22.8091 20.8955 21.9591V20.0112H18.0622C17.1177 20.0112 16.3503 20.2769 15.7601 20.8081C15.1698 21.3394 14.8747 21.9887 14.8747 22.756V32.1414C14.8747 32.9678 15.1698 33.6466 15.7601 34.1779C16.3503 34.7091 17.1177 34.9748 18.0622 34.9748H38.0726C39.4125 34.9748 40.5739 35.4219 41.5567 36.3162C42.5395 37.2105 43.0309 38.2685 43.0309 39.4904V56.4019H45.1559C46.0649 56.4019 46.8382 56.7206 47.4757 57.3581C48.1132 57.9956 48.4319 58.7394 48.4319 59.5894V72.9591C48.4319 73.8092 48.1132 74.5529 47.4757 75.1904C46.8382 75.8279 46.0649 76.1466 45.1559 76.1466ZM37.6299 74.3758H46.6611V58.1727H37.6299V74.3758ZM22.6663 23.3758H61.6247V14.8758H22.6663V23.3758Z" fill="#181818"/>
</g>
</svg>
