<svg width="82" height="82" viewBox="0 0 82 82" fill="none" xmlns="http://www.w3.org/2000/svg">
<mask id="mask0_259_1409" style="mask-type:alpha" maskUnits="userSpaceOnUse" x="0" y="0" width="82" height="82">
<rect width="82" height="82" fill="#D9D9D9"/>
</mask>
<g mask="url(#mask0_259_1409)">
<path d="M12.6416 65.2584V63.55H20.8416V16.7417H61.1583V63.55H69.3583V65.2584H12.6416ZM22.5499 63.55H37.8395C37.384 58.5959 35.9034 54.0261 33.3979 49.8407C30.8923 45.6552 27.2763 43.0216 22.5499 41.9396V63.55ZM22.5499 18.45V40.0604C27.2763 38.9785 30.8923 36.3448 33.3979 32.1594C35.9034 27.974 37.384 23.4042 37.8395 18.45H22.5499ZM25.1124 41C28.8708 42.1389 31.8604 44.2886 34.0812 47.449C36.302 50.6094 37.868 54.0688 38.7791 57.8271H43.2208C44.1319 54.0688 45.6979 50.6094 47.9187 47.449C50.1395 44.2886 53.1291 42.1389 56.8874 41C53.0722 39.9181 50.0541 37.7969 47.8333 34.6365C45.6124 31.4761 44.0465 28.0167 43.1354 24.2584H38.7791C37.811 28.0167 36.2308 31.4761 34.0385 34.6365C31.8461 37.7969 28.8708 39.9181 25.1124 41ZM59.4499 18.45H44.0749C44.5874 23.4042 46.0822 27.974 48.5593 32.1594C51.0364 36.3448 54.6666 38.9785 59.4499 40.0604V18.45ZM59.4499 63.55V41.9396C54.6666 43.0216 51.0364 45.6552 48.5593 49.8407C46.0822 54.0261 44.5874 58.5959 44.0749 63.55H59.4499Z" fill="#1C1B1F"/>
</g>
</svg>
