<svg width="85" height="85" viewBox="0 0 85 85" fill="none" xmlns="http://www.w3.org/2000/svg">
<mask id="mask0_259_1283" style="mask-type:alpha" maskUnits="userSpaceOnUse" x="0" y="0" width="85" height="85">
<rect width="85" height="85" fill="#D9D9D9"/>
</mask>
<g mask="url(#mask0_259_1283)">
<path d="M61.2579 67.4847C61.2077 67.5921 61.1153 67.6458 60.9807 67.6458H60.5823C60.4513 67.6458 60.34 67.639 60.2485 67.6255C60.1576 67.6119 60.0853 67.5597 60.0316 67.4688C58.4969 65.6389 57.2425 63.6638 56.2686 61.5435C55.2946 59.4233 54.8076 57.1631 54.8076 54.763C54.8076 53.0217 55.0437 51.2361 55.516 49.4062C55.9882 47.5764 56.9031 44.9497 58.2607 41.526C59.4413 38.6337 60.2529 36.3375 60.6956 34.6375C61.1383 32.9375 61.3597 31.3626 61.3597 29.9129C61.3597 27.9744 60.9318 26.0755 60.0758 24.2161C59.2199 22.3568 57.9066 20.5712 56.1357 18.8594C56.0814 18.7885 56.0383 18.7059 56.0065 18.6115C55.9746 18.517 55.9587 18.4226 55.9587 18.3281V18.0182C55.9587 17.8707 56.0124 17.7526 56.1198 17.6641C56.2485 17.5755 56.3842 17.487 56.5271 17.3984C56.6699 17.3099 56.8175 17.2656 56.9698 17.2656C57.1221 17.2656 57.2189 17.2978 57.2602 17.3621C57.3015 17.4265 57.3399 17.5124 57.3753 17.6198C59.0263 19.2112 60.3981 21.0301 61.4907 23.0766C62.5839 25.1231 63.1305 27.3216 63.1305 29.6721C63.1305 31.3178 62.8814 33.0559 62.3832 34.8863C61.8856 36.7173 61.0427 39.1667 59.8545 42.2344C58.6149 45.1267 57.759 47.5174 57.2868 49.4062C56.8146 51.2951 56.5785 53.0365 56.5785 54.6302C56.5785 56.7995 56.9621 58.8469 57.7295 60.7723C58.4969 62.6984 59.7069 64.5174 61.3597 66.2292C61.4671 66.3573 61.5383 66.475 61.5731 66.5824C61.6079 66.6905 61.6253 66.8062 61.6253 66.9295C61.6253 67.0529 61.5878 67.1568 61.5129 67.2412C61.4379 67.3256 61.3529 67.4068 61.2579 67.4847ZM42.9767 67.3802C42.8952 67.4983 42.7816 67.572 42.6358 67.6016C42.4906 67.6311 42.3652 67.6458 42.2595 67.6458C42.1544 67.6458 42.0635 67.6287 41.9868 67.5945C41.9106 67.5608 41.8457 67.4894 41.792 67.3802C40.2573 65.6094 38.9882 63.6334 37.9847 61.4523C36.9812 59.2713 36.4795 56.9866 36.4795 54.5983C36.4795 52.8653 36.7156 51.0797 37.1878 49.2416C37.66 47.4034 38.575 44.8316 39.9326 41.526C41.1132 38.5747 41.9248 36.2549 42.3675 34.5667C42.8102 32.8785 43.0316 31.303 43.0316 29.8403C43.0316 27.8369 42.6036 25.9433 41.7477 24.1595C40.8918 22.3757 39.608 20.609 37.8962 18.8594C37.7781 18.759 37.6896 18.646 37.6305 18.5203C37.5715 18.3939 37.542 18.2561 37.542 18.1068C37.542 18.0011 37.5567 17.9137 37.5863 17.8447C37.6158 17.7756 37.6851 17.6945 37.7943 17.6012C37.8787 17.5251 37.9773 17.4648 38.0901 17.4206C38.2034 17.3763 38.3099 17.3542 38.4097 17.3542C38.5095 17.3542 38.6249 17.3716 38.7559 17.4064C38.8875 17.4412 38.9846 17.5124 39.0472 17.6198C40.759 19.2726 42.1462 21.1066 43.2087 23.1218C44.2712 25.1376 44.8024 27.3036 44.8024 29.6198C44.8024 31.2413 44.5515 32.9523 44.0498 34.7526C43.5481 36.553 42.6774 39.0174 41.4378 42.1458C40.1982 45.0972 39.3423 47.4967 38.8701 49.3443C38.3979 51.1924 38.1618 52.9512 38.1618 54.6205C38.1618 56.752 38.5602 58.7474 39.3571 60.6068C40.154 62.4661 41.3788 64.3403 43.0316 66.2292C43.1201 66.2882 43.1865 66.3865 43.2308 66.524C43.2751 66.6621 43.2972 66.8 43.2972 66.9375C43.2972 67.0361 43.2677 67.1048 43.2087 67.1438C43.1496 67.1834 43.0723 67.2622 42.9767 67.3802ZM30.186 67.3802C30.1316 67.4983 30.0316 67.572 29.8858 67.6016C29.7406 67.6311 29.6095 67.6458 29.4927 67.6458C29.3758 67.6458 29.2731 67.6299 29.1845 67.598C29.0966 67.5662 29.0196 67.5231 28.9535 67.4688C27.4187 65.6979 26.1644 63.7264 25.1904 61.5542C24.2165 59.3825 23.7295 57.1076 23.7295 54.7294C23.7295 53.027 23.9656 51.2715 24.4378 49.4629C24.91 47.6543 25.825 45.0087 27.1826 41.526C28.4222 38.5747 29.2486 36.2622 29.6618 34.5888C30.075 32.9154 30.2816 31.3535 30.2816 29.9032C30.2816 27.9169 29.8536 26.0171 28.9977 24.2037C28.1418 22.3904 26.8285 20.609 25.0576 18.8594C25.0488 18.7832 25.0169 18.6894 24.962 18.5778C24.9077 18.4668 24.8805 18.363 24.8805 18.2661V17.9589C24.8805 17.8509 24.9342 17.7674 25.0417 17.7083C25.1225 17.5903 25.2217 17.487 25.3392 17.3984C25.4561 17.3099 25.5564 17.2656 25.6402 17.2656C25.724 17.2656 25.8235 17.291 25.9386 17.3418C26.0537 17.3931 26.1662 17.4793 26.276 17.6003C28.0019 19.2661 29.3962 21.1213 30.4587 23.166C31.5212 25.2114 32.0524 27.3842 32.0524 29.6845C32.0524 31.2039 31.8015 32.8637 31.2998 34.6641C30.7981 36.4644 29.9292 38.9704 28.6931 42.1821C27.509 45.0503 26.6661 47.4436 26.1644 49.362C25.6627 51.2804 25.4118 53.0365 25.4118 54.6302C25.4118 56.8142 25.8108 58.8451 26.6089 60.7228C27.4063 62.6004 28.6306 64.4359 30.2816 66.2292C30.3701 66.3171 30.4365 66.4122 30.4808 66.5143C30.5251 66.6164 30.5472 66.7188 30.5472 66.8215C30.5472 66.9384 30.5029 67.0311 30.4144 67.0995C30.3258 67.1686 30.2497 67.2622 30.186 67.3802Z" fill="#1C1B1F"/>
</g>
</svg>
