<svg width="82" height="82" viewBox="0 0 82 82" fill="none" xmlns="http://www.w3.org/2000/svg">
<mask id="mask0_259_1385" style="mask-type:alpha" maskUnits="userSpaceOnUse" x="0" y="0" width="82" height="82">
<rect width="82" height="82" fill="#D9D9D9"/>
</mask>
<g mask="url(#mask0_259_1385)">
<path d="M52.9584 40.2312L46.6375 34.8499C41.6264 30.2374 38.6938 26.9378 37.8396 24.951C36.9854 22.9642 36.5584 21.3666 36.5584 20.1583C36.5584 18.0041 37.2867 16.2126 38.7433 14.7839C40.2005 13.3557 42.0632 12.6416 44.3313 12.6416C46.1068 12.6416 47.7038 13.1683 49.1223 14.2218C50.5408 15.2753 51.8195 16.5138 52.9584 17.9374C54.0403 16.4569 55.3073 15.2041 56.7594 14.1791C58.2115 13.1541 59.827 12.6416 61.6059 12.6416C63.7596 12.6416 65.5901 13.3973 67.0974 14.9086C68.6047 16.4199 69.3584 18.2552 69.3584 20.4145C69.3584 21.6229 68.9455 23.2062 68.1198 25.1645C67.2941 27.1229 64.3757 30.3513 59.3646 34.8499L52.9584 40.2312ZM52.9584 38.2666L58.1688 33.9104C61.8702 30.7215 64.3757 28.0024 65.6854 25.7531C66.9952 23.5038 67.65 21.7242 67.65 20.4145C67.65 18.7392 67.0581 17.3096 65.8742 16.1257C64.6903 14.9419 63.2608 14.3499 61.5854 14.3499C60.0479 14.3499 58.6813 14.834 57.4854 15.802C56.2896 16.7701 55.2077 17.8805 54.2396 19.1333L52.9584 20.6708L51.6771 19.1333C50.7091 17.8805 49.6271 16.7701 48.4313 15.802C47.2355 14.834 45.8688 14.3499 44.3313 14.3499C42.6799 14.3499 41.2563 14.9419 40.0604 16.1257C38.8646 17.3096 38.2667 18.7392 38.2667 20.4145C38.2667 21.3826 38.7792 22.8631 39.8042 24.8562C40.8292 26.8492 43.5625 29.8673 48.0042 33.9104L52.9584 38.2666ZM21.9521 63.2083L47.2354 71.4937L67.4792 65.3437C67.3084 63.4645 66.6908 62.1263 65.6265 61.3291C64.5616 60.5319 63.357 60.1333 62.0125 60.1333H45.346C44.4987 60.1333 43.4202 60.0621 42.1104 59.9197C40.8007 59.7774 39.5195 59.4784 38.2667 59.0229L33.0563 57.0583L33.9959 55.4354L39.975 57.9124C40.7723 58.311 41.5268 58.5103 42.2386 58.5103C42.9504 58.5103 43.5341 58.4819 43.9896 58.4249H51.8479C51.8479 57.286 51.6914 56.4604 51.3782 55.9478C51.065 55.4354 50.4813 55.0083 49.6271 54.6666L28.1875 46.9791C28.0167 46.9222 27.8601 46.8794 27.7177 46.851C27.5754 46.8225 27.4188 46.8083 27.2479 46.8083H21.9521V63.2083ZM10.3354 69.3583V45.0999H26.9763C27.3282 45.0999 27.6636 45.1341 27.9825 45.2024C28.3014 45.2708 28.6132 45.3536 28.9178 45.451L50.3959 53.0437C51.25 53.3854 51.9903 53.9762 52.6167 54.8161C53.2431 55.656 53.5563 56.859 53.5563 58.4249H62.0125C64.4281 58.4249 66.2563 59.2364 67.4971 60.8593C68.738 62.4822 69.3584 64.2902 69.3584 66.2833V66.6249L47.3209 73.2874L21.9521 65.1729V69.3583H10.3354ZM12.0438 67.6499H20.2438V46.8083H12.0438V67.6499Z" fill="#1C1B1F"/>
</g>
</svg>
