<svg width="82" height="82" viewBox="0 0 82 82" fill="none" xmlns="http://www.w3.org/2000/svg">
<mask id="mask0_205_1379" style="mask-type:alpha" maskUnits="userSpaceOnUse" x="0" y="0" width="82" height="82">
<rect width="82" height="82" fill="#D9D9D9"/>
</mask>
<g mask="url(#mask0_205_1379)">
<path d="M41 17.9375L69.5292 39.2917L68.3333 40.6583L61.1583 35.1917V65.2583H20.8417V35.1917L13.5812 40.5729L12.4708 39.2917L41 17.9375ZM32.8 44.0536C32.8 45.0929 33.1844 46.2389 33.9531 47.4917C34.7219 48.7444 37.0708 51.1931 41 54.8375C45.1569 51.0222 47.6055 48.5332 48.3458 47.3704C49.0861 46.2076 49.4562 45.1094 49.4562 44.0759C49.4562 42.8795 48.9973 41.8115 48.0793 40.8719C47.1608 39.9323 46.0789 39.4625 44.8335 39.4625C44.157 39.4625 43.4913 39.6333 42.8364 39.975C42.1816 40.3167 41.5694 40.7437 41 41.2563C40.5444 40.7437 40.0035 40.3167 39.3771 39.975C38.7507 39.6333 38.0796 39.4625 37.3638 39.4625C36.111 39.4625 35.0371 39.9275 34.1419 40.8574C33.2473 41.7873 32.8 42.8527 32.8 44.0536ZM59.45 63.55V33.825L41 19.9875L22.55 33.825V63.55H59.45Z" fill="#181818"/>
</g>
</svg>
