<svg width="85" height="85" viewBox="0 0 85 85" fill="none" xmlns="http://www.w3.org/2000/svg">
<mask id="mask0_236_710" style="mask-type:alpha" maskUnits="userSpaceOnUse" x="0" y="0" width="85" height="85">
<rect width="85" height="85" fill="#D9D9D9"/>
</mask>
<g mask="url(#mask0_236_710)">
<path d="M65.8746 52.4167V27.8021L46.5725 13.901L27.2704 27.8286V38.6042H25.4996V27.0052L46.5725 11.6875L67.6454 26.9167V52.4167H65.8746ZM48.609 30.724H50.9111V28.4219H48.609V30.724ZM42.234 30.724H44.5361V28.4219H42.234V30.724ZM48.609 37.099H50.9111V34.7969H48.609V37.099ZM42.234 37.099H44.5361V34.7969H42.234V37.099ZM22.7548 65.5208L48.9631 74.1094L69.9475 67.7344C69.7704 65.7865 69.1303 64.3993 68.027 63.5729C66.9232 62.7465 65.6745 62.3333 64.2808 62.3333H47.0046C46.1263 62.3333 45.0083 62.2596 43.6506 62.112C42.293 61.9644 40.9649 61.6545 39.6663 61.1823L34.2652 59.1458L35.2392 57.4635L41.4371 60.0312C42.2635 60.4444 43.0456 60.651 43.7834 60.651C44.5213 60.651 45.1263 60.6215 45.5986 60.5625H53.7444C53.7444 59.3819 53.5821 58.526 53.2574 57.9948C52.9328 57.4635 52.3277 57.0208 51.4423 56.6667L29.2183 48.6979C29.0413 48.6389 28.8789 48.5946 28.7314 48.5651C28.5838 48.5356 28.4215 48.5208 28.2444 48.5208H22.7548V65.5208ZM10.7131 71.8958V46.75H27.9628C28.3276 46.75 28.6753 46.7854 29.0058 46.8563C29.3364 46.9271 29.6596 47.013 29.9754 47.1139L52.2392 54.9844C53.1246 55.3385 53.892 55.951 54.5413 56.8216C55.1906 57.6923 55.5152 58.9392 55.5152 60.5625H64.2808C66.7848 60.5625 68.6799 61.4036 69.9661 63.0859C71.2523 64.7682 71.8954 66.6424 71.8954 68.7083V69.0625L49.0517 75.9688L22.7548 67.5573V71.8958H10.7131ZM12.484 70.125H20.984V48.5208H12.484V70.125Z" fill="#181818"/>
</g>
</svg>
