<svg width="85" height="85" viewBox="0 0 85 85" fill="none" xmlns="http://www.w3.org/2000/svg">
<mask id="mask0_83_103" style="mask-type:alpha" maskUnits="userSpaceOnUse" x="0" y="0" width="85" height="85">
<rect width="85" height="85" fill="#D9D9D9"/>
</mask>
<g mask="url(#mask0_83_103)">
<path d="M42.4999 18.5938L72.0728 40.7292L70.8333 42.1458L63.3958 36.4792V67.6458H21.6041V36.4792L14.078 42.0573L12.927 40.7292L42.4999 18.5938ZM33.9999 45.6654C33.9999 46.7426 34.3984 47.9306 35.1952 49.2292C35.9921 50.5278 38.427 53.066 42.4999 56.8438C46.8089 52.8889 49.3471 50.3088 50.1145 49.1034C50.8819 47.8981 51.2655 46.7597 51.2655 45.6884C51.2655 44.4482 50.7898 43.3411 49.8383 42.3672C48.8861 41.3932 47.7646 40.9062 46.4737 40.9062C45.7724 40.9062 45.0824 41.0833 44.4036 41.4375C43.7247 41.7917 43.0902 42.2344 42.4999 42.7656C42.0277 42.2344 41.4669 41.7917 40.8176 41.4375C40.1683 41.0833 39.4727 40.9062 38.7307 40.9062C37.4321 40.9062 36.3188 41.3882 35.3909 42.3521C34.4636 43.3161 33.9999 44.4205 33.9999 45.6654ZM61.6249 65.875V35.0625L42.4999 20.7188L23.3749 35.0625V65.875H61.6249Z" fill="#181818"/>
</g>
</svg>
