<svg width="85" height="85" viewBox="0 0 85 85" fill="none" xmlns="http://www.w3.org/2000/svg">
<mask id="mask0_251_1046" style="mask-type:alpha" maskUnits="userSpaceOnUse" x="0" y="0" width="85" height="85">
<rect width="85" height="85" fill="#D9D9D9"/>
</mask>
<g mask="url(#mask0_251_1046)">
<path d="M65.8744 52.4167V27.8021L46.5723 13.901L27.2702 27.8286V38.6042H25.4993V27.0052L46.5723 11.6875L67.6452 26.9167V52.4167H65.8744ZM48.6087 30.724H50.9108V28.4219H48.6087V30.724ZM42.2337 30.724H44.5358V28.4219H42.2337V30.724ZM48.6087 37.099H50.9108V34.7969H48.6087V37.099ZM42.2337 37.099H44.5358V34.7969H42.2337V37.099ZM22.7546 65.5208L48.9629 74.1094L69.9473 67.7344C69.7702 65.7865 69.13 64.3993 68.0268 63.5729C66.923 62.7465 65.6742 62.3333 64.2806 62.3333H47.0044C46.126 62.3333 45.008 62.2596 43.6504 62.112C42.2928 61.9644 40.9646 61.6545 39.666 61.1823L34.265 59.1458L35.2389 57.4635L41.4368 60.0312C42.2632 60.4444 43.0454 60.651 43.7832 60.651C44.521 60.651 45.1261 60.6215 45.5983 60.5625H53.7441C53.7441 59.3819 53.5818 58.526 53.2572 57.9948C52.9325 57.4635 52.3275 57.0208 51.4421 56.6667L29.2181 48.6979C29.041 48.6389 28.8787 48.5946 28.7311 48.5651C28.5836 48.5356 28.4212 48.5208 28.2441 48.5208H22.7546V65.5208ZM10.7129 71.8958V46.75H27.9626C28.3274 46.75 28.675 46.7854 29.0056 46.8563C29.3362 46.9271 29.6593 47.013 29.9751 47.1139L52.2389 54.9844C53.1244 55.3385 53.8917 55.951 54.541 56.8216C55.1903 57.6923 55.515 58.9392 55.515 60.5625H64.2806C66.7846 60.5625 68.6796 61.4036 69.9659 63.0859C71.2521 64.7682 71.8952 66.6424 71.8952 68.7083V69.0625L49.0514 75.9688L22.7546 67.5573V71.8958H10.7129ZM12.4837 70.125H20.9837V48.5208H12.4837V70.125Z" fill="#181818"/>
</g>
</svg>
