<svg width="82" height="82" viewBox="0 0 82 82" fill="none" xmlns="http://www.w3.org/2000/svg">
<mask id="mask0_251_1225" style="mask-type:alpha" maskUnits="userSpaceOnUse" x="0" y="0" width="82" height="82">
<rect width="82" height="82" fill="#D9D9D9"/>
</mask>
<g mask="url(#mask0_251_1225)">
<path d="M41.4266 65.2584C37.7822 65.3153 34.4333 65.1331 31.3799 64.7117C28.3266 64.2909 25.7214 63.693 23.5643 62.9179C21.4072 62.1435 19.7308 61.2116 18.535 60.1223C17.3391 59.0329 16.7412 57.8408 16.7412 56.5459C16.7412 57.8442 17.3454 59.0397 18.5538 60.1325C19.7615 61.2247 21.4414 62.1529 23.5933 62.9171C25.7447 63.6807 28.3436 64.2761 31.3902 64.7032C34.4367 65.1302 37.7822 65.3153 41.4266 65.2584ZM41.9391 48.7729C39.9461 48.7729 37.8818 48.6875 35.7464 48.5167C33.611 48.3459 31.5183 48.0611 29.4683 47.6625C27.4183 47.2639 25.4537 46.7229 23.5745 46.0396C21.6954 45.3563 19.987 44.5875 18.4495 43.7334C19.987 44.5875 21.7096 45.3563 23.6173 46.0396C25.5249 46.7229 27.5037 47.2639 29.5537 47.6625C31.6037 48.0611 33.6802 48.3416 35.7831 48.5039C37.8861 48.6656 39.9381 48.7553 41.9391 48.7729ZM40.9995 30.1521C45.7259 30.1521 50.253 29.5684 54.5808 28.4011C58.9086 27.2337 61.8127 25.8528 63.2933 24.2584C61.8697 22.6639 58.994 21.2973 54.6662 20.1584C50.3384 19.0195 45.782 18.45 40.997 18.45C36.4431 18.45 31.86 19.0337 27.2475 20.2011C22.635 21.3684 19.7308 22.7209 18.535 24.2584C19.6169 25.9098 22.3075 27.3049 26.6068 28.4438C30.9061 29.5827 35.7037 30.1521 40.9995 30.1521ZM41.512 63.6354C41.3982 63.7493 41.327 63.9202 41.2985 64.1479C41.27 64.3757 41.3127 64.7459 41.4266 65.2584C37.7822 65.3153 34.4333 65.1331 31.3799 64.7117C28.3266 64.2909 25.7214 63.693 23.5643 62.9179C21.4072 62.1435 19.7308 61.2116 18.535 60.1223C17.3391 59.0329 16.7412 57.8408 16.7412 56.5459V24.6C16.7412 23.6559 17.4382 22.7143 18.8322 21.7753C20.2256 20.8363 22.0621 20.0046 24.3416 19.2803C26.6205 18.5559 29.2197 17.9518 32.1393 17.4677C35.0594 16.9837 38.0063 16.7417 40.9799 16.7417C43.8972 16.7417 46.8079 16.9837 49.712 17.4677C52.6162 17.9518 55.2169 18.5676 57.514 19.3153C59.8111 20.0624 61.6761 20.8881 63.1088 21.7924C64.5415 22.6961 65.2579 23.6266 65.2579 24.5838C65.2579 25.3696 64.4891 26.1953 62.9516 27.0609C61.4141 27.9259 59.4495 28.7143 57.0579 29.4261C54.6662 30.1379 52.0459 30.7358 49.197 31.2198C46.3486 31.7039 43.6161 31.9459 40.9995 31.9459C36.5579 31.9459 32.3155 31.4618 28.2725 30.4938C24.2294 29.5257 20.9551 28.2445 18.4495 26.65V42.4521C21.1259 43.7618 24.5568 44.8438 28.7423 45.6979C32.9277 46.5521 37.953 46.9507 43.8183 46.8938C43.5905 47.2924 43.2916 47.6341 42.9214 47.9188C42.5513 48.2035 42.2239 48.4882 41.9391 48.7729C37.953 48.8868 33.8103 48.5309 29.511 47.7052C25.2117 46.8795 21.5245 45.5556 18.4495 43.7334V57.3992C20.044 59.5067 22.877 61.1014 26.9485 62.1834C31.02 63.2653 35.8745 63.7493 41.512 63.6354ZM72.262 73.4584L63.9766 65.2584C63.0655 65.8278 62.0864 66.3118 61.0391 66.7104C59.9914 67.1091 58.9191 67.3084 57.8224 67.3084C55.2041 67.3084 52.9559 66.3688 51.0779 64.4896C49.1993 62.6105 48.26 60.3611 48.26 57.7417C48.26 55.1223 49.1995 52.873 51.0787 50.9938C52.9579 49.1146 55.2072 48.175 57.8266 48.175C60.4461 48.175 62.6954 49.1143 64.5745 50.9929C66.4537 52.871 67.3933 55.1191 67.3933 57.7374C67.3933 58.8342 67.2225 59.9207 66.8808 60.9969C66.5391 62.0726 65.9982 63.0375 65.2579 63.8917L73.5433 72.1771L72.262 73.4584ZM63.3787 63.3134C64.9162 61.7885 65.685 59.9378 65.685 57.7613C65.685 55.5844 64.9228 53.7271 63.3984 52.1896C61.8734 50.6521 60.0227 49.8834 57.8463 49.8834C55.6693 49.8834 53.812 50.6456 52.2745 52.17C50.737 53.6949 49.9683 55.5456 49.9683 57.7221C49.9683 59.899 50.7305 61.7563 52.2549 63.2938C53.7799 64.8313 55.6306 65.6 57.807 65.6C59.984 65.6 61.8412 64.8378 63.3787 63.3134Z" fill="#181818"/>
</g>
</svg>
