<svg width="82" height="82" viewBox="0 0 82 82" fill="none" xmlns="http://www.w3.org/2000/svg">
<mask id="mask0_179_600" style="mask-type:alpha" maskUnits="userSpaceOnUse" x="0" y="0" width="82" height="82">
<rect width="82" height="82" fill="#D9D9D9"/>
</mask>
<g mask="url(#mask0_179_600)">
<path d="M41.0001 17.9375L69.5293 39.2917L68.3334 40.6583L61.1584 35.1917V65.2583H20.8418V35.1917L13.5814 40.5729L12.4709 39.2917L41.0001 17.9375ZM32.8001 44.0536C32.8001 45.0929 33.1845 46.2389 33.9532 47.4917C34.722 48.7444 37.0709 51.1931 41.0001 54.8375C45.1571 51.0222 47.6057 48.5332 48.3459 47.3704C49.0862 46.2076 49.4564 45.1094 49.4564 44.0759C49.4564 42.8795 48.9974 41.8115 48.0794 40.8719C47.1609 39.9323 46.079 39.4625 44.8336 39.4625C44.1571 39.4625 43.4914 39.6333 42.8366 39.975C42.1817 40.3167 41.5696 40.7437 41.0001 41.2563C40.5446 40.7437 40.0036 40.3167 39.3772 39.975C38.7508 39.6333 38.0797 39.4625 37.3639 39.4625C36.1111 39.4625 35.0372 39.9275 34.142 40.8574C33.2474 41.7873 32.8001 42.8527 32.8001 44.0536ZM59.4501 63.55V33.825L41.0001 19.9875L22.5501 33.825V63.55H59.4501Z" fill="#181818"/>
</g>
</svg>
