<svg width="85" height="85" viewBox="0 0 85 85" fill="none" xmlns="http://www.w3.org/2000/svg">
<mask id="mask0_259_1271" style="mask-type:alpha" maskUnits="userSpaceOnUse" x="0" y="0" width="85" height="85">
<rect width="85" height="85" fill="#D9D9D9"/>
</mask>
<g mask="url(#mask0_259_1271)">
<path d="M23.375 65.8734H61.625V33.7327L42.5 19.6546L23.375 33.7327V65.8734ZM21.6042 67.6442V34.9723L13.1927 41.0817L11.9531 39.5765L42.5 17.3525L73.0469 39.665L71.8958 41.0817L63.3958 34.8838V67.6442H21.6042ZM45.8203 54.3187C46.7352 53.4038 47.1927 52.297 47.1927 50.9984C47.1927 49.8768 46.9418 48.8143 46.4401 47.8109C45.9384 46.8074 44.625 44.7709 42.5 41.7015C40.2569 45.0661 38.9141 47.1616 38.4714 47.988C38.0286 48.8143 37.8073 49.8178 37.8073 50.9984C37.8073 52.297 38.2648 53.4038 39.1797 54.3187C40.0946 55.2336 41.2014 55.6911 42.5 55.6911C43.7986 55.6911 44.9054 55.2336 45.8203 54.3187Z" fill="#1C1B1F"/>
</g>
</svg>
