<svg width="206" height="199" viewBox="0 0 206 199" fill="none" xmlns="http://www.w3.org/2000/svg">
<path d="M37.8996 191.06L28.8076 198.322L26.3537 195.25C25.7864 194.54 25.442 193.86 25.3206 193.21C25.1963 192.563 25.2568 191.962 25.5021 191.407C25.7475 190.853 26.138 190.361 26.6737 189.934C27.2094 189.506 27.7718 189.236 28.3611 189.124C28.9504 189.012 29.5443 189.088 30.1428 189.351C30.7383 189.617 31.3173 190.103 31.88 190.807L33.8658 193.293L32.8713 194.087L30.9139 191.637C30.5262 191.152 30.1431 190.818 29.7647 190.635C29.3838 190.45 29.01 190.394 28.6432 190.469C28.271 190.543 27.9029 190.726 27.5389 191.017C27.1749 191.308 26.9111 191.63 26.7475 191.983C26.584 192.337 26.5476 192.722 26.6384 193.14C26.7262 193.559 26.9664 194.014 27.3588 194.506L28.9049 196.441L37.0202 189.959L37.8996 191.06ZM30.3969 190.043L32.694 184.543L33.7152 185.822L31.3898 191.286L30.3969 190.043Z" fill="white"/>
<path d="M29.9706 180.63L30.7523 181.884L18.6177 184.416L17.848 183.182L25.4605 173.398L26.2423 174.652L19.7708 182.786L19.8189 182.863L29.9706 180.63ZM25.8251 182.573L22.674 177.52L23.7347 176.859L26.8857 181.911L25.8251 182.573Z" fill="white"/>
<path d="M23.7625 170.187L13.2408 175.157L12.639 173.883L17.8588 171.417L17.8005 171.294L10.3482 169.033L9.562 167.368L16.396 169.544L20.0837 162.399L20.8117 163.94L17.6485 169.908L19.7494 170.524L23.1607 168.913L23.7625 170.187Z" fill="white"/>
<path d="M18.445 158.188L7.41754 161.903L5.17565 155.247L6.36025 154.848L8.15231 160.168L11.8784 158.913L10.2024 153.938L11.387 153.539L13.063 158.514L16.8106 157.252L14.9895 151.846L16.1741 151.447L18.445 158.188Z" fill="white"/>
<path d="M1.73218 140.976L13.1164 138.567L13.3987 139.901L5.77328 147.996L5.79681 148.107L14.7352 146.216L15.0269 147.594L3.64275 150.004L3.3604 148.67L11.0034 140.547L10.9798 140.436L2.01924 142.333L1.73218 140.976Z" fill="white"/>
<path d="M2.17537 135.802L0.930685 135.917L0.127092 127.227L1.37178 127.112L1.7087 130.755L12.0509 129.799L12.1807 131.202L1.83845 132.158L2.17537 135.802Z" fill="white"/>
<path d="M11.5655 121.141L11.5298 122.617L0 118.065L0.0351184 116.611L11.7712 112.62L11.7356 114.097L1.85903 117.337L1.85683 117.428L11.5655 121.141ZM7.03452 120.485L7.17828 114.533L8.42792 114.563L8.28415 120.516L7.03452 120.485Z" fill="white"/>
<path d="M0.31597 109.355L0.551489 107.69L10.6692 105.127L10.6883 104.992L1.67816 99.7236L1.91368 98.0584L13.4354 99.6879L13.2508 100.993L4.49699 99.755L4.48108 99.8675L12.7256 104.706L12.5474 105.966L3.28439 108.329L3.26847 108.441L12.0223 109.679L11.8377 110.985L0.31597 109.355Z" fill="white"/>
<path d="M4.00692 89.3202L15.2615 92.2763L14.9036 93.6392L3.64895 90.6831L4.00692 89.3202Z" fill="white"/>
<path d="M9.76307 72.4933L20.5984 76.736L20.1012 78.0058L9.28183 80.579L9.2404 80.6848L17.7478 84.016L17.2341 85.3281L6.39873 81.0854L6.89592 79.8156L17.7447 77.2295L17.7862 77.1237L9.25759 73.7842L9.76307 72.4933Z" fill="white"/>
<path d="M22.6773 72.2952L12.4078 66.8232L15.7101 60.6254L16.8133 61.2132L14.1735 66.1674L17.6435 68.0164L20.1123 63.383L21.2155 63.9709L18.7467 68.6042L22.2367 70.4638L24.9192 65.4293L26.0224 66.0171L22.6773 72.2952Z" fill="white"/>
<path d="M23.7275 48.3272L33.2923 54.9544L32.5157 56.0753L21.3945 56.084L21.3298 56.1774L28.8397 61.3808L28.0372 62.539L18.4723 55.9118L19.249 54.791L30.4017 54.7765L30.4665 54.6831L22.9379 49.4668L23.7275 48.3272Z" fill="white"/>
<path d="M40.8269 29.8875L41.8749 28.9456L47.4354 35.1321C47.9317 35.6842 48.2519 36.2444 48.396 36.8127C48.54 37.381 48.5174 37.931 48.3282 38.4627C48.1389 38.9944 47.7936 39.4856 47.2921 39.9363C46.8188 40.3617 46.3204 40.6544 45.7969 40.8142C45.2709 40.9713 44.7579 40.9842 44.2579 40.8529C43.758 40.7217 43.3092 40.4349 42.9117 39.9926L43.9428 39.0659C44.1631 39.311 44.4161 39.4706 44.7018 39.5449C44.9878 39.6137 45.2835 39.6027 45.5887 39.5116C45.894 39.4206 46.1832 39.2523 46.4565 39.0067C46.7579 38.7357 46.9573 38.4419 47.0547 38.1253C47.152 37.8086 47.1455 37.4783 47.035 37.1345C46.9249 36.7853 46.709 36.4318 46.3875 36.074L40.8269 29.8875Z" fill="white"/>
<path d="M57.9482 24.0987C58.6571 25.1006 59.0888 26.0943 59.2434 27.0801C59.398 28.0658 59.2999 28.9797 58.9492 29.8218C58.5984 30.664 58.018 31.3716 57.2079 31.9449C56.3978 32.5181 55.5373 32.83 54.6265 32.8806C53.7156 32.9311 52.8211 32.7195 51.943 32.2458C51.0649 31.7721 50.2714 31.0343 49.5625 30.0324C48.8536 29.0306 48.4218 28.0368 48.2673 27.0511C48.1127 26.0654 48.2107 25.1515 48.5615 24.3094C48.9122 23.4672 49.4926 22.7595 50.3027 22.1863C51.1129 21.6131 51.9733 21.3012 52.8842 21.2506C53.795 21.2 54.6895 21.4116 55.5676 21.8854C56.4458 22.3591 57.2393 23.0969 57.9482 24.0987ZM56.835 24.8864C56.253 24.0639 55.6242 23.4671 54.9486 23.096C54.2761 22.7227 53.6036 22.5559 52.931 22.5956C52.2616 22.6331 51.6393 22.8554 51.0641 23.2623C50.489 23.6693 50.0708 24.1833 49.8096 24.8043C49.5515 25.4232 49.485 26.1129 49.6102 26.8735C49.7385 27.6319 50.0936 28.4223 50.6756 29.2448C51.2576 30.0673 51.8849 30.6652 52.5574 31.0385C53.2329 31.4096 53.9055 31.5764 54.5749 31.5389C55.2475 31.4991 55.8714 31.2758 56.4465 30.8688C57.0216 30.4619 57.4383 29.949 57.6964 29.3301C57.9576 28.7091 58.0241 28.0194 57.8958 27.261C57.7706 26.5004 57.417 25.7089 56.835 24.8864Z" fill="white"/>
<path d="M64.5648 26.8613L58.9917 16.6464L60.2286 15.9715L62.9934 21.0391L63.1132 20.9738L64.9371 13.4027L66.5531 12.521L64.7781 19.4699L72.1263 22.7359L70.63 23.5523L64.488 20.7415L63.9949 22.8746L65.8018 26.1865L64.5648 26.8613Z" fill="white"/>
<path d="M76.213 20.8637L74.8428 21.4159L74.4562 9.02596L75.8053 8.48226L84.1179 17.678L82.7477 18.2302L75.861 10.4446L75.7767 10.4786L76.213 20.8637ZM75.0198 16.4439L80.5428 14.2181L81.01 15.3775L75.4871 17.6033L75.0198 16.4439Z" fill="white"/>
<path d="M99.8212 13.4856L98.0778 1.98054L99.471 1.76943L100.336 7.477L100.471 7.45657L104.774 0.965842L106.594 0.690035L102.55 6.61286L108.338 12.1951L106.652 12.4504L101.842 7.70849L100.649 9.54431L101.214 13.2745L99.8212 13.4856Z" fill="white"/>
<path d="M112.818 11.8337L111.342 11.884L115.216 0.108963L116.67 0.0594731L121.336 11.5437L119.86 11.594L116.051 1.92251L115.96 1.92561L112.818 11.8337ZM113.209 7.27232L119.16 7.06972L119.202 8.319L113.251 8.5216L113.209 7.27232Z" fill="white"/>
<path d="M134.123 0.758778L133.166 12.3557L131.807 12.2436L126.239 2.61675L126.126 2.60741L125.374 11.7128L123.97 11.597L124.927 0L126.286 0.112135L131.875 9.7635L131.988 9.77285L132.741 0.644774L134.123 0.758778Z" fill="white"/>
<path d="M147.888 3.19134L145.592 14.5988L144.255 14.3296L139.842 4.12148L139.731 4.09905L137.927 13.0557L136.546 12.7776L138.843 1.37011L140.179 1.63926L144.61 11.8742L144.722 11.8966L146.529 2.91771L147.888 3.19134Z" fill="white"/>
<path d="M150.304 15.8683L148.9 15.4106L156.568 5.6708L157.951 6.12149L158.408 18.5091L157.003 18.0513L156.732 7.66054L156.646 7.63237L150.304 15.8683ZM152.232 11.7156L157.893 13.5606L157.506 14.7491L151.844 12.9041L152.232 11.7156Z" fill="white"/>
<path d="M165.538 10.1768L166.06 9.04129L173.988 12.6905L173.465 13.8259L170.142 12.296L165.799 21.7308L164.519 21.1416L168.862 11.7068L165.538 10.1768Z" fill="white"/>
<path d="M177.998 16.193L178.649 15.1259L186.099 19.6707L185.448 20.7379L182.324 18.8323L176.916 27.6992L175.713 26.9654L181.121 18.0985L177.998 16.193Z" fill="white"/>
<path d="M184.15 32.4804L182.987 31.5699L193.524 25.0401L194.669 25.9366L190.862 37.7334L189.698 36.8229L192.998 26.9661L192.926 26.91L184.15 32.4804ZM187.381 29.2372L192.07 32.9073L191.3 33.8917L186.611 30.2216L187.381 29.2372Z" fill="white"/>
<path d="M193.895 40.5062L192.845 39.4668L204.069 34.2044L205.102 35.2278L199.951 46.5029L198.901 45.4634L203.322 36.0562L203.258 35.9923L193.895 40.5062ZM197.481 37.66L201.712 41.8497L200.832 42.7379L196.601 38.5483L197.481 37.66Z" fill="white"/>
</svg>
