<svg width="138" height="138" viewBox="0 0 138 138" fill="none" xmlns="http://www.w3.org/2000/svg">
<path d="M66.1534 7.27273V0H68.6108C69.179 0 69.6453 0.0970644 70.0099 0.291193C70.3745 0.482954 70.6444 0.746922 70.8196 1.0831C70.9948 1.41927 71.0824 1.80161 71.0824 2.23011C71.0824 2.65862 70.9948 3.03859 70.8196 3.37003C70.6444 3.70147 70.3757 3.96188 70.0135 4.15128C69.6513 4.3383 69.1884 4.43182 68.625 4.43182H66.6364V3.63636H68.5966C68.9848 3.63636 69.2973 3.57955 69.5341 3.46591C69.7732 3.35227 69.946 3.19129 70.0526 2.98295C70.1615 2.77225 70.2159 2.52131 70.2159 2.23011C70.2159 1.93892 70.1615 1.68442 70.0526 1.46662C69.9436 1.24882 69.7696 1.08073 69.5305 0.962358C69.2914 0.841619 68.9754 0.78125 68.5824 0.78125H67.0341V7.27273H66.1534ZM69.5767 4.00568L71.3665 7.27273H70.3437L68.5824 4.00568H69.5767Z" fill="#FFFFFE"/>
<path d="M80.195 8.29815L79.2948 8.0927L83.5167 1.59654L84.403 1.79883L85.3881 9.48345L84.488 9.278L83.7315 2.82573L83.6761 2.81309L80.195 8.29815ZM81.1595 5.60433L84.7878 6.43246L84.6139 7.19412L80.9857 6.36599L81.1595 5.60433Z" fill="#FFFFFE"/>
<path d="M93.0967 12.2267L96.2523 5.67416L97.0457 6.05628L95.4803 9.30693L95.5571 9.34391L100.066 7.51077L101.103 8.00999L96.9274 9.64122L97.9471 14.5625L96.9873 14.1003L96.1761 9.95733L94.9133 10.4843L93.8902 12.6088L93.0967 12.2267Z" fill="#FFFFFE"/>
<path d="M105.46 19.3688L109.995 13.6827L113.427 16.4194L112.939 17.0302L110.196 14.8426L108.664 16.7639L111.23 18.8097L110.743 19.4205L108.177 17.3747L106.636 19.3071L109.424 21.53L108.937 22.1408L105.46 19.3688Z" fill="#FFFFFE"/>
<path d="M124.192 27.9638L118.506 32.4982L117.975 31.8319L119.968 25.1732L119.924 25.1177L115.46 28.6779L114.91 27.9894L120.597 23.4549L121.128 24.1212L119.132 30.7999L119.176 30.8555L123.652 27.2863L124.192 27.9638Z" fill="#FFFFFE"/>
<path d="M128.722 36.5541L129.426 36.2151L131.792 41.1295L131.088 41.4685L130.096 39.408L124.248 42.2246L123.865 41.4311L129.714 38.6146L128.722 36.5541Z" fill="#FFFFFE"/>
<path d="M128.214 52.8249L128.009 51.9248L135.693 52.9099L135.896 53.7962L129.4 58.0181L129.194 57.1179L134.679 53.6368L134.667 53.5814L128.214 52.8249ZM131.06 52.5251L131.888 56.1534L131.126 56.3272L130.298 52.699L131.06 52.5251Z" fill="#FFFFFE"/>
<path d="M137.545 65.1535V66.2046L131.509 68.6762V68.7614L137.545 71.233V72.2841H130.273V71.4603H135.798V71.3893L130.273 69.1165V68.3211L135.798 66.0484V65.9773H130.273V65.1535H137.545Z" fill="#FFFFFE"/>
<path d="M135.763 84.3309L128.673 82.7126L128.869 81.854L135.959 83.4723L135.763 84.3309Z" fill="white"/>
<path d="M129.586 100.998L123.033 97.8422L123.403 97.0743L130.268 95.9813L130.298 95.9173L125.154 93.4397L125.536 92.6462L132.088 95.8018L131.718 96.5696L124.835 97.6693L124.804 97.7333L129.962 100.217L129.586 100.998Z" fill="white"/>
<path d="M118.177 105.46L123.863 109.995L121.126 113.427L120.515 112.939L122.703 110.196L120.782 108.664L118.736 111.23L118.125 110.742L120.171 108.177L118.238 106.636L116.016 109.424L115.405 108.936L118.177 105.46Z" fill="white"/>
<path d="M109.582 124.192L105.047 118.506L105.714 117.975L112.372 119.968L112.428 119.924L108.868 115.46L109.556 114.911L114.091 120.597L113.424 121.128L106.746 119.132L106.69 119.177L110.259 123.652L109.582 124.192Z" fill="white"/>
<path d="M83.4279 135.969L82.5693 136.165L81.4125 131.097C81.3092 130.644 81.3046 130.241 81.3986 129.887C81.4926 129.533 81.6721 129.239 81.937 129.006C82.202 128.773 82.5399 128.61 82.9507 128.516C83.3385 128.428 83.6996 128.42 84.0341 128.491C84.3691 128.565 84.6532 128.714 84.8864 128.938C85.1195 129.161 85.2775 129.454 85.3602 129.817L84.5154 130.01C84.4696 129.809 84.3799 129.645 84.2464 129.517C84.1112 129.393 83.9464 129.309 83.752 129.266C83.5576 129.223 83.3485 129.227 83.1246 129.278C82.8776 129.334 82.6794 129.434 82.53 129.578C82.3806 129.721 82.2838 129.903 82.2397 130.125C82.1937 130.349 82.2042 130.608 82.2711 130.901L83.4279 135.969Z" fill="white"/>
<path d="M65.7557 133.909C65.7557 133.142 65.8942 132.479 66.1712 131.92C66.4481 131.362 66.8281 130.931 67.3111 130.628C67.794 130.325 68.3456 130.173 68.9659 130.173C69.5862 130.173 70.1378 130.325 70.6207 130.628C71.1037 130.931 71.4837 131.362 71.7606 131.92C72.0376 132.479 72.1761 133.142 72.1761 133.909C72.1761 134.676 72.0376 135.339 71.7606 135.898C71.4837 136.456 71.1037 136.887 70.6207 137.19C70.1378 137.493 69.5862 137.645 68.9659 137.645C68.3456 137.645 67.794 137.493 67.3111 137.19C66.8281 136.887 66.4481 136.456 66.1712 135.898C65.8942 135.339 65.7557 134.676 65.7557 133.909ZM66.6079 133.909C66.6079 134.539 66.7133 135.07 66.924 135.504C67.1323 135.937 67.4152 136.265 67.7727 136.487C68.1278 136.71 68.5256 136.821 68.9659 136.821C69.4062 136.821 69.8052 136.71 70.1626 136.487C70.5177 136.265 70.8007 135.937 71.0114 135.504C71.2197 135.07 71.3239 134.539 71.3239 133.909C71.3239 133.279 71.2197 132.748 71.0114 132.315C70.8007 131.881 70.5177 131.553 70.1626 131.331C69.8052 131.108 69.4062 130.997 68.9659 130.997C68.5256 130.997 68.1278 131.108 67.7727 131.331C67.4152 131.553 67.1323 131.881 66.924 132.315C66.7133 132.748 66.6079 133.279 66.6079 133.909Z" fill="white"/>
<path d="M57.6414 129.314L56.0231 136.404L55.1645 136.208L55.9673 132.691L55.8842 132.672L51.8962 135.462L50.7745 135.206L54.4821 132.687L52.3929 128.116L53.4315 128.353L55.1442 132.211L56.2581 131.417L56.7828 129.118L57.6414 129.314Z" fill="white"/>
<path d="M44.18 125.19L45.0118 125.59L39.4503 130.984L38.6312 130.59L39.3808 122.878L40.2126 123.279L39.5144 129.738L39.5656 129.763L44.18 125.19ZM42.6402 127.601L39.2871 125.987L39.6261 125.283L42.9792 126.897L42.6402 127.601Z" fill="white"/>
<path d="M22.3231 109.165L16.6371 113.7L16.088 113.011L18.9088 110.762L18.8557 110.695L13.9979 110.39L13.2805 109.491L17.75 109.833L18.9666 104.956L19.6308 105.789L18.5641 109.874L19.9305 109.947L21.774 108.477L22.3231 109.165Z" fill="white"/>
<path d="M14.3702 97.5478L14.7708 98.3796L7.05966 99.1291L6.66522 98.3101L12.0591 92.7486L12.4597 93.5804L7.88674 98.1948L7.91139 98.246L14.3702 97.5478ZM11.6627 98.4732L10.048 95.1202L10.7519 94.7812L12.3666 98.1343L11.6627 98.4732Z" fill="white"/>
<path d="M1.13512 81.4948L8.2255 79.8765L8.41515 80.7074L3.72996 85.8417L3.74576 85.911L9.31282 84.6403L9.50879 85.4989L2.41841 87.1172L2.22876 86.2863L6.92464 81.135L6.90884 81.0657L1.32793 82.3395L1.13512 81.4948Z" fill="white"/>
<path d="M0 66.1251H7.27273V66.9773L1.5625 70.9404V71.0114H7.27273V71.8921H0V71.0398L5.72443 67.0626V66.9915H0V66.1251Z" fill="#FFFFFE"/>
<path d="M8.29815 57.3505L8.0927 58.2507L1.59654 54.0288L1.79883 53.1425L9.48345 52.1574L9.278 53.0575L2.82573 53.814L2.81309 53.8694L8.29815 57.3505ZM5.60433 56.386L6.43246 52.7577L7.19412 52.9316L6.36599 56.5599L5.60433 56.386Z" fill="#FFFFFE"/>
<path d="M6.20548 41.9906L5.5016 41.6517L7.86823 36.7373L8.57212 37.0763L7.57985 39.1367L13.4285 41.9533L13.0464 42.7467L7.19774 39.9302L6.20548 41.9906Z" fill="#FFFFFE"/>
<path d="M13.7338 28.7396L13.123 28.2525L16.5238 23.988L17.1346 24.4751L15.7088 26.2631L20.784 30.3105L20.2349 30.999L15.1597 26.9517L13.7338 28.7396Z" fill="#FFFFFE"/>
<path d="M28.6135 22.1373L27.8916 22.7129L25.445 15.3619L26.1557 14.7951L32.7781 18.8161L32.0562 19.3918L26.5399 15.9603L26.4955 15.9957L28.6135 22.1373ZM27.1087 19.7036L30.0184 17.3832L30.5055 17.994L27.5958 20.3144L27.1087 19.7036Z" fill="#FFFFFE"/>
<path d="M39.9976 14.3702L39.1658 14.7708L38.4163 7.05968L39.2353 6.66524L44.7968 12.0591L43.965 12.4597L39.3506 7.88675L39.2994 7.91141L39.9976 14.3702ZM39.0722 11.6628L42.4252 10.048L42.7642 10.7519L39.4111 12.3666L39.0722 11.6628Z" fill="#FFFFFE"/>
</svg>
