<svg width="85" height="85" viewBox="0 0 85 85" fill="none" xmlns="http://www.w3.org/2000/svg">
<mask id="mask0_236_623" style="mask-type:alpha" maskUnits="userSpaceOnUse" x="0" y="0" width="85" height="85">
<rect width="85" height="85" fill="#D9D9D9"/>
</mask>
<g mask="url(#mask0_236_623)">
<path d="M17.7077 71.8966C16.3678 71.8966 15.2654 71.4643 14.4007 70.5995C13.5359 69.7348 13.1035 68.6324 13.1035 67.2925V17.7091C13.1035 16.3692 13.5359 15.2669 14.4007 14.4021C15.2654 13.5374 16.3678 13.105 17.7077 13.105H67.291C68.6309 13.105 69.7333 13.5374 70.598 14.4021C71.4628 15.2669 71.8952 16.3692 71.8952 17.7091V67.2925C71.8952 68.6324 71.4628 69.7348 70.598 70.5995C69.7333 71.4643 68.6309 71.8966 67.291 71.8966H17.7077ZM14.8743 55.0737V67.2925C14.8743 68.1189 15.14 68.7977 15.6712 69.3289C16.2025 69.8602 16.8813 70.1258 17.7077 70.1258H23.5514V61.8029H20.8952V55.0737H14.8743ZM14.8743 53.3029H20.8952V51.355C20.8952 50.7647 21.0575 50.2335 21.3822 49.7612C21.7068 49.289 22.1348 48.9053 22.666 48.6102V38.4279C22.666 37.6605 22.9464 36.9965 23.5072 36.4357C24.0679 35.8749 24.732 35.5946 25.4993 35.5946H33.9993C34.7667 35.5946 35.4308 35.8749 35.9915 36.4357C36.5523 36.9965 36.8327 37.6605 36.8327 38.4279V48.6102C37.3639 48.9053 37.7919 49.289 38.1165 49.7612C38.4412 50.2335 38.6035 50.7647 38.6035 51.355V53.3029H70.1244V17.7091C70.1244 16.8828 69.8587 16.2039 69.3275 15.6727C68.7962 15.1414 68.1174 14.8758 67.291 14.8758H17.7077C16.8813 14.8758 16.2025 15.1414 15.6712 15.6727C15.14 16.2039 14.8743 16.8828 14.8743 17.7091V53.3029ZM22.3118 60.3862H37.1868V49.9383H22.3118V60.3862ZM29.7493 33.4696C28.6868 33.4696 27.7719 33.0859 27.0046 32.3185C26.2372 31.5512 25.8535 30.6362 25.8535 29.5737C25.8535 28.5112 26.2372 27.5963 27.0046 26.8289C27.7719 26.0616 28.6868 25.6779 29.7493 25.6779C30.8118 25.6779 31.7268 26.0616 32.4941 26.8289C33.2615 27.5963 33.6452 28.5112 33.6452 29.5737C33.6452 30.6362 33.2615 31.5512 32.4941 32.3185C31.7268 33.0859 30.8118 33.4696 29.7493 33.4696ZM27.8014 70.1258H31.6973V61.8029H27.8014V70.1258ZM35.9473 70.1258H67.291C68.1174 70.1258 68.7962 69.8602 69.3275 69.3289C69.8587 68.7977 70.1244 68.1189 70.1244 67.2925V55.0737H38.6035V61.8029H35.9473V70.1258ZM45.9525 35.7716C46.0705 35.8897 46.1886 35.6536 46.3066 35.0633C46.4247 34.473 46.4837 33.9846 46.4837 33.598C46.4837 32.7202 46.3066 31.8891 45.9525 31.1046C45.5983 30.3201 45.0671 29.4852 44.3587 28.5998C43.4733 27.5373 42.824 26.4706 42.4108 25.3999C41.9976 24.3291 41.791 23.2412 41.791 22.1362C41.791 21.7821 41.7763 21.4427 41.7467 21.118C41.7172 20.7933 41.7518 20.6015 41.8503 20.5425H43.3848C43.3257 20.8966 43.2815 21.2213 43.252 21.5164C43.2224 21.8116 43.2077 22.0182 43.2077 22.1362C43.2077 23.1397 43.4143 24.0841 43.8275 24.9696C44.2407 25.855 44.8309 26.7699 45.5983 27.7144C46.3657 28.5998 46.9412 29.5492 47.3249 30.5627C47.7086 31.5762 47.9004 32.5747 47.9004 33.5581C47.9004 33.6762 47.8856 33.9418 47.8561 34.355C47.8266 34.7682 47.7528 35.2404 47.6348 35.7716H45.9525ZM54.0098 35.7716C54.1278 35.8897 54.2459 35.6536 54.3639 35.0633C54.482 34.473 54.541 33.9846 54.541 33.598C54.541 32.7202 54.3639 31.8891 54.0098 31.1046C53.6556 30.3201 53.1243 29.4852 52.416 28.5998C51.5306 27.5373 50.8813 26.4706 50.4681 25.3999C50.0549 24.3291 49.8483 23.2412 49.8483 22.1362C49.8483 21.7821 49.8336 21.4427 49.804 21.118C49.7745 20.7933 49.8091 20.6015 49.9076 20.5425H51.4421C51.383 20.8966 51.3388 21.2213 51.3092 21.5164C51.2797 21.8116 51.265 22.0182 51.265 22.1362C51.265 23.1397 51.4716 24.0841 51.8848 24.9696C52.298 25.855 52.8882 26.7699 53.6556 27.7144C54.423 28.5998 54.9985 29.5492 55.3822 30.5627C55.7658 31.5762 55.9577 32.5747 55.9577 33.5581C55.9577 33.6762 55.9429 33.9418 55.9134 34.355C55.8839 34.7682 55.8101 35.2404 55.6921 35.7716H54.0098ZM62.3327 35.7716C62.4507 35.8307 62.5688 35.5798 62.6869 35.019C62.8049 34.4583 62.8639 33.9846 62.8639 33.598C62.8639 32.7202 62.6869 31.8891 62.3327 31.1046C61.9785 30.3201 61.4473 29.4852 60.7389 28.5998C59.8535 27.5373 59.2042 26.4706 58.791 25.3999C58.3778 24.3291 58.1712 23.2412 58.1712 22.1362C58.1712 21.7821 58.1565 21.4427 58.127 21.118C58.0974 20.7933 58.132 20.6015 58.2305 20.5425H59.765C59.7059 20.8966 59.6617 21.2213 59.6322 21.5164C59.6026 21.8116 59.5879 22.0182 59.5879 22.1362C59.5879 23.1397 59.7945 24.0841 60.2077 24.9696C60.6209 25.855 61.2112 26.7699 61.9785 27.7144C62.7459 28.5998 63.3214 29.5492 63.7051 30.5627C64.0888 31.5762 64.2806 32.5747 64.2806 33.5581C64.2806 33.6762 64.2658 33.9418 64.2363 34.355C64.2068 34.7682 64.133 35.2404 64.015 35.7716H62.3327Z" fill="#181818"/>
</g>
</svg>
