<svg width="85" height="85" viewBox="0 0 85 85" fill="none" xmlns="http://www.w3.org/2000/svg">
<mask id="mask0_83_97" style="mask-type:alpha" maskUnits="userSpaceOnUse" x="0" y="0" width="85" height="85">
<rect width="85" height="85" fill="#D9D9D9"/>
</mask>
<g mask="url(#mask0_83_97)">
<path d="M33.5024 76.1458C32.3584 76.1458 31.3393 75.7872 30.4451 75.0701C29.5502 74.3529 29.0234 73.4424 28.8646 72.3386L22.3125 34.3542H62.776L56.224 72.3386C56.064 73.4424 55.5339 74.3529 54.6337 75.0701C53.733 75.7872 52.7283 76.1458 51.6198 76.1458H33.5024ZM33.3802 74.375H51.6198C52.3281 74.375 52.9479 74.1389 53.4792 73.6667C54.0104 73.1945 54.3351 72.6042 54.4531 71.8958L60.474 36.125H24.526L30.5469 71.8958C30.6649 72.6042 30.9896 73.1945 31.5208 73.6667C32.0521 74.1389 32.6719 74.375 33.3802 74.375ZM48.388 52.6451C50.0113 51.0272 50.8229 49.0621 50.8229 46.75V42.6771H49.0521V46.75C49.0521 48.5444 48.4028 50.0851 47.1042 51.3719C45.8056 52.6587 44.2708 53.3021 42.5 53.3021C40.7292 53.3021 39.1944 52.6587 37.8958 51.3719C36.5972 50.0851 35.9479 48.5444 35.9479 46.75V42.6771H34.1771V46.75C34.1771 49.0621 34.9852 51.0272 36.6014 52.6451C38.2175 54.2636 40.1802 55.0729 42.4894 55.0729C44.7985 55.0729 46.7648 54.2636 48.388 52.6451ZM53.1356 25.4115C52.3022 25.4115 51.5903 25.1199 51 24.5367C50.4097 23.9535 50.1146 23.2451 50.1146 22.4117C50.1146 21.5782 50.4062 20.8663 50.9894 20.276C51.5726 19.6858 52.2809 19.3906 53.1144 19.3906C53.9478 19.3906 54.6597 19.6822 55.25 20.2654C55.8403 20.8486 56.1354 21.5569 56.1354 22.3904C56.1354 23.2239 55.8438 23.9358 55.2606 24.526C54.6774 25.1163 53.9691 25.4115 53.1356 25.4115ZM36.1454 21.1615C34.479 21.1615 33.026 20.5485 31.7865 19.3224C30.5469 18.0958 29.9271 16.6349 29.9271 14.9396C29.9271 13.2438 30.5401 11.7908 31.7661 10.5807C32.9927 9.37066 34.4536 8.76562 36.1489 8.76562C37.8448 8.76562 39.2977 9.36269 40.5078 10.5568C41.7179 11.7515 42.3229 13.2137 42.3229 14.9432C42.3229 16.6095 41.7258 18.0625 40.5317 19.3021C39.337 20.5417 37.8749 21.1615 36.1454 21.1615ZM51.6198 74.375H30.724H54.276H51.6198Z" fill="#181818"/>
</g>
</svg>
