<svg width="85" height="85" viewBox="0 0 85 85" fill="none" xmlns="http://www.w3.org/2000/svg">
<mask id="mask0_236_646" style="mask-type:alpha" maskUnits="userSpaceOnUse" x="0" y="0" width="85" height="85">
<rect width="85" height="85" fill="#D9D9D9"/>
</mask>
<g mask="url(#mask0_236_646)">
<path d="M44.0938 71.7196C39.8314 71.487 36.0064 70.4992 32.6188 68.7561C29.2306 67.013 26.2969 64.6657 23.8177 61.7144C21.3385 58.763 19.3611 55.3246 17.8854 51.3993C16.4097 47.4739 15.4653 43.2682 15.0521 38.7821L14.875 36.48L16.9646 36.6571C18.9361 36.8341 21.6632 37.5868 25.1458 38.9149C28.6285 40.243 31.4618 41.763 33.6458 43.4748C33.7049 39.697 34.5017 35.5651 36.0365 31.0789C37.5712 26.5928 39.7257 22.5494 42.5 18.9487C45.2743 22.5494 47.4141 26.5928 48.9193 31.0789C50.4245 35.5651 51.2361 39.7265 51.3542 43.5633C53.3611 42.0876 56.0469 40.6119 59.4115 39.1362C62.776 37.6605 65.5917 36.8341 67.8583 36.6571L70.125 36.48L69.9479 38.9591C69.7118 41.9696 69.2691 45.1276 68.6198 48.4331C67.9705 51.7387 66.7457 54.9114 64.9453 57.9513C63.145 60.9913 60.6068 63.7213 57.3307 66.1414C54.0547 68.5616 49.6424 70.421 44.0938 71.7196ZM44.1823 70.1258C43.651 61.1536 40.9948 53.8932 36.2135 48.3446C31.4323 42.796 24.9392 39.5199 16.7344 38.5164C17.3247 47.4887 19.9219 54.7638 24.526 60.342C29.1302 65.9201 35.6823 69.1814 44.1823 70.1258ZM42.5 54.631C43.3854 52.9192 44.4774 51.1779 45.776 49.4071C47.0747 47.6362 48.3438 46.2491 49.5833 45.2456C49.5243 41.763 48.9193 37.9999 47.7682 33.9565C46.6172 29.9131 44.8611 25.8845 42.5 21.8706C40.1389 25.8845 38.3681 29.9574 37.1875 34.0894C36.0069 38.2213 35.4167 41.9401 35.4167 45.2456C36.8298 46.4456 38.1718 47.9408 39.4427 49.7311C40.7135 51.522 41.7326 53.1553 42.5 54.631ZM45.776 69.4175C49.967 68.0598 53.4644 66.3185 56.2682 64.1935C59.0721 62.0685 61.3446 59.6631 63.0859 56.9774C64.8273 54.2916 66.0816 51.3845 66.849 48.256C67.6163 45.1276 68.0885 41.881 68.2656 38.5164C62.4809 39.5199 57.3012 41.6892 52.7266 45.0243C48.1519 48.3593 45.0087 52.506 43.2969 57.4644C43.932 59.3007 44.445 61.1028 44.8357 62.8707C45.2265 64.638 45.5399 66.8203 45.776 69.4175Z" fill="#181818"/>
</g>
</svg>
