<svg width="64" height="47" viewBox="0 0 64 47" fill="none" xmlns="http://www.w3.org/2000/svg">
<path d="M8.41146 21.6042C8.11632 19.125 7.86545 17.1328 7.65885 15.6276C7.45226 14.1224 6.67014 12.3368 5.3125 10.2708C3.95486 8.20486 3.03993 6.43403 2.56771 4.95833C2.09549 3.48264 1.9184 1.82986 2.03646 0H4.07292C4.07292 1.71181 4.29427 3.24653 4.73698 4.60417C5.17969 5.96181 6.07986 7.67361 7.4375 9.73958C8.5 11.4514 9.26736 13.2813 9.73958 15.2292C10.2118 17.1771 10.4479 19.3021 10.4479 21.6042H8.41146ZM20.8073 21.6042C20.5122 19.125 20.2613 17.1328 20.0547 15.6276C19.8481 14.1224 19.066 12.3368 17.7083 10.2708C16.3507 8.20486 15.4505 6.43403 15.0078 4.95833C14.5651 3.48264 14.4028 1.82986 14.5208 0H16.5573C16.5573 1.71181 16.7786 3.24653 17.2214 4.60417C17.6641 5.96181 18.5642 7.67361 19.9219 9.73958C20.9844 11.4514 21.7517 13.2813 22.224 15.2292C22.6962 17.1771 22.9323 19.3021 22.9323 21.6042H20.8073ZM33.5573 21.6042C33.2622 19.125 32.9818 17.1328 32.7161 15.6276C32.4505 14.1224 31.6389 12.3368 30.2812 10.2708C28.9236 8.20486 28.053 6.43403 27.6693 4.95833C27.2856 3.48264 27.1528 1.82986 27.2708 0H29.3073C29.3073 1.71181 29.5139 3.24653 29.9271 4.60417C30.3403 5.96181 31.2257 7.67361 32.5833 9.73958C33.6458 11.4514 34.428 13.2813 34.9297 15.2292C35.4314 17.1771 35.6823 19.3021 35.6823 21.6042H33.5573ZM4.95833 46.0417C3.54167 46.0417 2.36111 45.5694 1.41667 44.625C0.472222 43.6806 0 42.5 0 41.0833V29.75H42.4115C42.5885 28.4514 43.0903 27.2856 43.9167 26.2526C44.7431 25.2196 45.8351 24.526 47.1927 24.1719L62.9531 19.7448L63.3073 21.5156L47.6354 25.9427C46.5729 26.2378 45.6875 26.8429 44.9792 27.7578C44.2708 28.6727 43.9167 29.691 43.9167 30.8125V41.0833C43.9167 42.441 43.4444 43.6068 42.5 44.5807C41.5556 45.5547 40.375 46.0417 38.9583 46.0417H4.95833ZM4.95833 44.2708H38.9583C39.8438 44.2708 40.5964 43.9609 41.2161 43.3411C41.8359 42.7214 42.1458 41.9688 42.1458 41.0833V31.5208H1.77083V41.0833C1.77083 41.9688 2.08073 42.7214 2.70052 43.3411C3.32031 43.9609 4.07292 44.2708 4.95833 44.2708Z" fill="#181818"/>
</svg>
