<svg width="85" height="85" viewBox="0 0 85 85" fill="none" xmlns="http://www.w3.org/2000/svg">
<mask id="mask0_236_667" style="mask-type:alpha" maskUnits="userSpaceOnUse" x="0" y="0" width="85" height="85">
<rect width="85" height="85" fill="#D9D9D9"/>
</mask>
<g mask="url(#mask0_236_667)">
<path d="M21.604 61.625V58.4375C21.604 57.7882 21.8549 57.1241 22.3566 56.4453C22.8583 55.7665 23.5814 55.1319 24.5259 54.5417C27.1821 53.066 29.9414 51.9002 32.8036 51.0443C35.6659 50.1884 38.5258 49.7014 41.3833 49.5833C41.3154 49.8785 41.278 50.1441 41.2709 50.3802C41.2638 50.6163 41.2603 50.8819 41.2603 51.1771C41.6144 51.026 41.88 50.8276 42.0571 50.5821C42.2342 50.3359 42.3228 50.062 42.3228 49.7604V50.5573C42.3228 50.7934 42.3523 51.059 42.4113 51.3542C39.4009 51.4132 36.4642 51.8116 33.6014 52.5495C30.7386 53.2873 28.1266 54.3646 25.7655 55.7812C24.9981 56.2535 24.4078 56.7027 23.9946 57.1289C23.5814 57.5556 23.3748 57.9918 23.3748 58.4375V59.8542H47.9009L49.6717 61.625H21.604ZM36.7004 37.3203C35.1361 35.7561 34.354 33.8229 34.354 31.5208C34.354 29.2188 35.1361 27.2856 36.7004 25.7214C38.2646 24.1571 40.1978 23.375 42.4998 23.375C44.8019 23.375 46.7351 24.1571 48.2993 25.7214C49.8636 27.2856 50.6457 29.2188 50.6457 31.5208C50.6457 33.8229 49.8636 35.7561 48.2993 37.3203C46.7351 38.8845 44.8019 39.6667 42.4998 39.6667C40.1978 39.6667 38.2646 38.8845 36.7004 37.3203ZM47.0155 36.0179C48.255 34.7659 48.8748 33.2607 48.8748 31.5022C48.8748 29.7438 48.2488 28.2448 46.9969 27.0052C45.7449 25.7656 44.2397 25.1458 42.4812 25.1458C40.7228 25.1458 39.2238 25.7718 37.9842 27.0238C36.7446 28.2758 36.1248 29.781 36.1248 31.5394C36.1248 33.2979 36.7508 34.7969 38.0028 36.0365C39.2548 37.276 40.76 37.8958 42.5184 37.8958C44.2769 37.8958 45.7759 37.2698 47.0155 36.0179ZM61.1821 61.625L51.995 52.4379C51.3906 51.8335 50.9851 51.2157 50.7785 50.5847C50.5719 49.9531 50.4686 49.3218 50.4686 48.6908C50.4686 47.2931 50.9476 46.0299 51.9056 44.9013C52.8636 43.7726 54.1407 43.2083 55.7368 43.2083C57.0177 43.2083 58.0241 43.5035 58.7561 44.0938C59.488 44.684 60.2967 45.4219 61.1821 46.3073C62.1266 45.3628 62.9432 44.6102 63.6321 44.0495C64.3203 43.4887 65.3088 43.2083 66.5973 43.2083C68.2407 43.2083 69.5346 43.7526 70.479 44.841C71.4234 45.9295 71.8957 47.1762 71.8957 48.581C71.8957 49.2398 71.7776 49.9047 71.5415 50.5759C71.3054 51.2464 70.9217 51.86 70.3905 52.4167L61.1821 61.625Z" fill="#181818"/>
</g>
</svg>
