<svg width="82" height="82" viewBox="0 0 82 82" fill="none" xmlns="http://www.w3.org/2000/svg">
<mask id="mask0_179_588" style="mask-type:alpha" maskUnits="userSpaceOnUse" x="0" y="0" width="82" height="82">
<rect width="82" height="82" fill="#D9D9D9"/>
</mask>
<g mask="url(#mask0_179_588)">
<path d="M16.4853 65.2585V55.6918C15.8487 55.4447 15.3179 55.1033 14.8931 54.6677C14.4689 54.232 14.2024 53.7192 14.0936 53.1293L10.5916 31.6897C11.1792 31.6897 11.6709 31.8654 12.0667 32.2167C12.463 32.5687 12.7116 32.9909 12.8124 33.4835L15.5457 49.5418H26.3082C27.7888 49.5418 28.8992 49.9119 29.6395 50.6522C30.3797 51.3925 30.7499 52.5029 30.7499 53.9835V55.948H27.6749V65.2585H26.3936V55.948H17.852V65.2585H16.4853ZM40.1457 65.2585V41.6835H23.9166V39.6335C23.9166 39.7018 23.8909 39.7758 23.8397 39.8555C23.7884 39.9353 23.7002 39.9751 23.5749 39.9751H58.4249C58.2996 39.9751 58.2113 39.9495 58.1601 39.8983C58.1088 39.847 58.0832 39.7587 58.0832 39.6335V41.6835H41.8541V65.2585H40.1457ZM27.6749 32.1168V29.1272C27.6749 26.5078 28.7853 24.472 31.0061 23.0199C33.227 21.5678 35.7895 20.8418 38.6936 20.8418H40.1457V10.5918H41.8541V20.8418H43.3916C46.2957 20.8418 48.8582 21.5678 51.0791 23.0199C53.2999 24.472 54.4103 26.5078 54.4103 29.1272V32.1168H27.6749ZM28.7853 30.4085H53.2145C53.3853 27.9599 52.4423 26.038 50.3855 24.6428C48.3286 23.2477 45.9973 22.5501 43.3916 22.5501H38.6936C36.0879 22.5501 33.7423 23.2335 31.657 24.6001C29.5717 25.9668 28.6145 27.9029 28.7853 30.4085ZM54.4957 65.2585V55.948H51.2499V53.9835C51.2499 52.5029 51.62 51.3925 52.3603 50.6522C53.1006 49.9119 54.211 49.5418 55.6916 49.5418H66.4541L69.1874 33.5689C69.295 33.0524 69.578 32.6099 70.0364 32.2415C70.4954 31.8736 71.0096 31.6897 71.5791 31.6897H71.4936L67.9061 53.2147C67.7974 53.7477 67.5593 54.232 67.1921 54.6677C66.8253 55.1033 66.3516 55.4447 65.7707 55.6918V65.2585H64.4041V55.948H55.777V65.2585H54.4957Z" fill="#181818"/>
</g>
</svg>
